<svg xmlns="http://www.w3.org/2000/svg" xmlns:xlink="http://www.w3.org/1999/xlink" width="500" zoomAndPan="magnify" viewBox="0 0 375 374.999991" height="500" preserveAspectRatio="xMidYMid meet" version="1.0"><defs><g/><clipPath id="5d7f86cb2f"><path d="M 97.546875 0 L 206 0 L 206 62 L 97.546875 62 Z M 97.546875 0 " clip-rule="nonzero"/></clipPath><clipPath id="9a280aee7f"><path d="M 172 18 L 289.277344 18 L 289.277344 105.453125 L 172 105.453125 Z M 172 18 " clip-rule="nonzero"/></clipPath><clipPath id="31e8f6fb7e"><path d="M 124 183.265625 L 252 183.265625 L 252 375 L 124 375 Z M 124 183.265625 " clip-rule="nonzero"/></clipPath><clipPath id="90d5cb228c"><path d="M 97.546875 231 L 119 231 L 119 342 L 97.546875 342 Z M 97.546875 231 " clip-rule="nonzero"/></clipPath><clipPath id="37cd577af1"><path d="M 258 231 L 278.734375 231 L 278.734375 342 L 258 342 Z M 258 231 " clip-rule="nonzero"/></clipPath></defs><g clip-path="url(#5d7f86cb2f)"><path fill="#004aad" d="M 197.503906 0.0585938 L 97.53125 11.546875 L 105.777344 61.707031 L 205.746094 50.21875 Z M 197.503906 0.0585938 " fill-opacity="1" fill-rule="nonzero"/></g><path fill="#f5e8a9" d="M 204.648438 7.589844 L 105.5 23.691406 L 116.773438 74.675781 L 215.917969 58.574219 Z M 204.648438 7.589844 " fill-opacity="1" fill-rule="nonzero"/><path fill="#004aad" d="M 219.496094 7.835938 L 121.460938 28.261719 L 135.8125 78.519531 L 233.84375 58.089844 Z M 219.496094 7.835938 " fill-opacity="1" fill-rule="nonzero"/><path fill="#f5e8a9" d="M 230.609375 15.226562 L 136.5625 45.703125 L 158.515625 92.710938 L 252.558594 62.234375 Z M 230.609375 15.226562 " fill-opacity="1" fill-rule="nonzero"/><g clip-path="url(#9a280aee7f)"><path fill="#004aad" d="M 252.984375 18.046875 L 172.179688 66.5 L 208.445312 105.363281 L 289.25 56.910156 Z M 252.984375 18.046875 " fill-opacity="1" fill-rule="nonzero"/></g><path fill="#004aad" d="M 227.34375 347.515625 L 148.90625 347.515625 C 147.703125 347.515625 146.726562 346.542969 146.726562 345.339844 C 146.726562 344.136719 147.703125 343.164062 148.90625 343.164062 L 227.34375 343.164062 C 228.546875 343.164062 229.523438 344.136719 229.523438 345.339844 C 229.523438 346.542969 228.546875 347.515625 227.34375 347.515625 Z M 227.34375 347.515625 " fill-opacity="1" fill-rule="nonzero"/><path fill="#004aad" d="M 227.34375 361.289062 L 148.90625 361.289062 C 147.703125 361.289062 146.726562 360.316406 146.726562 359.113281 C 146.726562 357.910156 147.703125 356.9375 148.90625 356.9375 L 227.34375 356.9375 C 228.546875 356.9375 229.523438 357.910156 229.523438 359.113281 C 229.523438 360.316406 228.546875 361.289062 227.34375 361.289062 Z M 227.34375 361.289062 " fill-opacity="1" fill-rule="nonzero"/><g clip-path="url(#31e8f6fb7e)"><path fill="#004aad" d="M 241.65625 183.265625 L 134.597656 183.265625 L 134.597656 231.902344 L 124.59375 231.902344 L 124.59375 341.710938 L 134.597656 341.710938 L 134.597656 375 L 241.65625 375 L 241.65625 341.710938 L 251.660156 341.710938 L 251.660156 231.902344 L 241.65625 231.902344 Z M 138.953125 187.617188 L 237.296875 187.617188 L 237.296875 231.902344 L 138.953125 231.902344 Z M 237.296875 370.648438 L 138.953125 370.648438 L 138.953125 306.246094 L 237.296875 306.246094 Z M 237.296875 370.648438 " fill-opacity="1" fill-rule="nonzero"/></g><path fill="#004aad" d="M 148.90625 319.96875 L 227.34375 319.96875 C 228.546875 319.96875 229.523438 318.996094 229.523438 317.792969 C 229.523438 316.589844 228.546875 315.617188 227.34375 315.617188 L 148.90625 315.617188 C 147.703125 315.617188 146.726562 316.589844 146.726562 317.792969 C 146.726562 318.996094 147.703125 319.96875 148.90625 319.96875 Z M 148.90625 319.96875 " fill-opacity="1" fill-rule="nonzero"/><path fill="#004aad" d="M 148.90625 333.742188 L 227.34375 333.742188 C 228.546875 333.742188 229.523438 332.769531 229.523438 331.566406 C 229.523438 330.363281 228.546875 329.390625 227.34375 329.390625 L 148.90625 329.390625 C 147.703125 329.390625 146.726562 330.363281 146.726562 331.566406 C 146.726562 332.769531 147.703125 333.742188 148.90625 333.742188 Z M 148.90625 333.742188 " fill-opacity="1" fill-rule="nonzero"/><g clip-path="url(#90d5cb228c)"><path fill="#004aad" d="M 97.714844 249.765625 L 97.714844 323.828125 C 97.714844 333.703125 105.753906 341.710938 115.621094 341.710938 L 118.058594 341.710938 L 118.058594 231.902344 L 115.621094 231.902344 C 105.753906 231.902344 97.714844 239.910156 97.714844 249.765625 Z M 97.714844 249.765625 " fill-opacity="1" fill-rule="nonzero"/></g><g clip-path="url(#37cd577af1)"><path fill="#004aad" d="M 260.628906 231.902344 L 258.195312 231.902344 L 258.195312 341.710938 L 260.628906 341.710938 C 270.5 341.710938 278.539062 333.703125 278.539062 323.828125 L 278.539062 249.765625 C 278.539062 239.910156 270.5 231.902344 260.628906 231.902344 Z M 260.628906 231.902344 " fill-opacity="1" fill-rule="nonzero"/></g><g fill="#000000" fill-opacity="1"><g transform="translate(171.265277, 168.311852)"><g><path d="M 12.824219 -24.171875 L 1.964844 -24.171875 L 1.964844 -18.652344 L 12.824219 -18.652344 L 12.824219 -5.644531 L 18.773438 -5.644531 L 18.773438 -18.652344 L 29.878906 -18.652344 L 29.878906 -24.171875 L 18.773438 -24.171875 L 18.773438 -35.648438 L 12.824219 -35.648438 Z M 12.824219 -24.171875 "/></g></g></g></svg>