<svg xmlns="http://www.w3.org/2000/svg" xmlns:xlink="http://www.w3.org/1999/xlink" width="500" zoomAndPan="magnify" viewBox="0 0 375 374.999991" height="500" preserveAspectRatio="xMidYMid meet" version="1.0"><defs><g/><clipPath id="f4e2aac95b"><path d="M 0.371094 143.542969 L 91 143.542969 L 91 195 L 0.371094 195 Z M 0.371094 143.542969 " clip-rule="nonzero"/></clipPath><clipPath id="d9c13b71bf"><path d="M 62 158 L 160.871094 158 L 160.871094 231.292969 L 62 231.292969 Z M 62 158 " clip-rule="nonzero"/></clipPath><clipPath id="8eccd285cc"><path d="M 266 119.972656 L 356 119.972656 L 356 254.972656 L 266 254.972656 Z M 266 119.972656 " clip-rule="nonzero"/></clipPath><clipPath id="62f566508f"><path d="M 247.542969 154 L 262 154 L 262 232 L 247.542969 232 Z M 247.542969 154 " clip-rule="nonzero"/></clipPath></defs><g clip-path="url(#f4e2aac95b)"><path fill="#004aad" d="M 84.050781 143.589844 L 0.363281 153.148438 L 7.261719 194.890625 L 90.949219 185.332031 Z M 84.050781 143.589844 " fill-opacity="1" fill-rule="nonzero"/></g><path fill="#f5e8a9" d="M 90.027344 149.855469 L 7.03125 163.253906 L 16.46875 205.683594 L 99.464844 192.285156 Z M 90.027344 149.855469 " fill-opacity="1" fill-rule="nonzero"/><path fill="#004aad" d="M 102.460938 150.058594 L 20.394531 167.0625 L 32.40625 208.882812 L 114.46875 191.878906 Z M 102.460938 150.058594 " fill-opacity="1" fill-rule="nonzero"/><path fill="#f5e8a9" d="M 111.761719 156.210938 L 33.035156 181.574219 L 51.410156 220.691406 L 130.132812 195.328125 Z M 111.761719 156.210938 " fill-opacity="1" fill-rule="nonzero"/><g clip-path="url(#d9c13b71bf)"><path fill="#004aad" d="M 130.492188 158.558594 L 62.851562 198.878906 L 93.207031 231.222656 L 160.851562 190.902344 Z M 130.492188 158.558594 " fill-opacity="1" fill-rule="nonzero"/></g><path fill="#004aad" d="M 338.882812 235.621094 L 283.6875 235.621094 C 282.839844 235.621094 282.152344 234.9375 282.152344 234.089844 C 282.152344 233.242188 282.839844 232.558594 283.6875 232.558594 L 338.882812 232.558594 C 339.730469 232.558594 340.414062 233.242188 340.414062 234.089844 C 340.414062 234.9375 339.730469 235.621094 338.882812 235.621094 Z M 338.882812 235.621094 " fill-opacity="1" fill-rule="nonzero"/><path fill="#004aad" d="M 338.882812 245.320312 L 283.6875 245.320312 C 282.839844 245.320312 282.152344 244.632812 282.152344 243.789062 C 282.152344 242.941406 282.839844 242.253906 283.6875 242.253906 L 338.882812 242.253906 C 339.730469 242.253906 340.414062 242.941406 340.414062 243.789062 C 340.414062 244.632812 339.730469 245.320312 338.882812 245.320312 Z M 338.882812 245.320312 " fill-opacity="1" fill-rule="nonzero"/><g clip-path="url(#8eccd285cc)"><path fill="#004aad" d="M 348.953125 119.972656 L 273.617188 119.972656 L 273.617188 154.21875 L 266.578125 154.21875 L 266.578125 231.535156 L 273.617188 231.535156 L 273.617188 254.972656 L 348.953125 254.972656 L 348.953125 231.535156 L 355.992188 231.535156 L 355.992188 154.21875 L 348.953125 154.21875 Z M 276.683594 123.039062 L 345.886719 123.039062 L 345.886719 154.21875 L 276.683594 154.21875 Z M 345.886719 251.910156 L 276.683594 251.910156 L 276.683594 206.566406 L 345.886719 206.566406 Z M 345.886719 251.910156 " fill-opacity="1" fill-rule="nonzero"/></g><path fill="#004aad" d="M 283.6875 216.226562 L 338.882812 216.226562 C 339.730469 216.226562 340.414062 215.539062 340.414062 214.695312 C 340.414062 213.847656 339.730469 213.160156 338.882812 213.160156 L 283.6875 213.160156 C 282.839844 213.160156 282.152344 213.847656 282.152344 214.695312 C 282.152344 215.539062 282.839844 216.226562 283.6875 216.226562 Z M 283.6875 216.226562 " fill-opacity="1" fill-rule="nonzero"/><path fill="#004aad" d="M 283.6875 225.925781 L 338.882812 225.925781 C 339.730469 225.925781 340.414062 225.238281 340.414062 224.394531 C 340.414062 223.546875 339.730469 222.859375 338.882812 222.859375 L 283.6875 222.859375 C 282.839844 222.859375 282.152344 223.546875 282.152344 224.394531 C 282.152344 225.238281 282.839844 225.925781 283.6875 225.925781 Z M 283.6875 225.925781 " fill-opacity="1" fill-rule="nonzero"/><g clip-path="url(#62f566508f)"><path fill="#004aad" d="M 247.664062 166.796875 L 247.664062 218.941406 C 247.664062 225.898438 253.320312 231.535156 260.265625 231.535156 L 261.980469 231.535156 L 261.980469 154.21875 L 260.265625 154.21875 C 253.320312 154.21875 247.664062 159.855469 247.664062 166.796875 Z M 247.664062 166.796875 " fill-opacity="1" fill-rule="nonzero"/></g><path fill="#004aad" d="M 362.304688 154.21875 L 360.589844 154.21875 L 360.589844 231.535156 L 362.304688 231.535156 C 369.25 231.535156 374.90625 225.898438 374.90625 218.941406 L 374.90625 166.796875 C 374.90625 159.855469 369.25 154.21875 362.304688 154.21875 Z M 362.304688 154.21875 " fill-opacity="1" fill-rule="nonzero"/><g fill="#000000" fill-opacity="1"><g transform="translate(187.307438, 209.069948)"><g><path d="M 12.824219 -24.171875 L 1.964844 -24.171875 L 1.964844 -18.652344 L 12.824219 -18.652344 L 12.824219 -5.644531 L 18.773438 -5.644531 L 18.773438 -18.652344 L 29.878906 -18.652344 L 29.878906 -24.171875 L 18.773438 -24.171875 L 18.773438 -35.648438 L 12.824219 -35.648438 Z M 12.824219 -24.171875 "/></g></g></g></svg>