<svg xmlns="http://www.w3.org/2000/svg" xmlns:xlink="http://www.w3.org/1999/xlink" width="500" zoomAndPan="magnify" viewBox="0 0 375 374.999991" height="500" preserveAspectRatio="xMidYMid meet" version="1.0"><defs><g/><clipPath id="203a53c013"><path d="M 237 101.675781 L 351 101.675781 L 351 273.484375 L 237 273.484375 Z M 237 101.675781 " clip-rule="nonzero"/></clipPath><clipPath id="ecdffe46d7"><path d="M 213.003906 145 L 232 145 L 232 244 L 213.003906 244 Z M 213.003906 145 " clip-rule="nonzero"/></clipPath><clipPath id="c9d3bee65e"><path d="M 356 145 L 374.449219 145 L 374.449219 244 L 356 244 Z M 356 145 " clip-rule="nonzero"/></clipPath></defs><path fill="#004aad" d="M 328.664062 248.855469 L 258.765625 248.855469 C 257.691406 248.855469 256.824219 247.984375 256.824219 246.90625 C 256.824219 245.828125 257.691406 244.957031 258.765625 244.957031 L 328.664062 244.957031 C 329.734375 244.957031 330.605469 245.828125 330.605469 246.90625 C 330.605469 247.984375 329.734375 248.855469 328.664062 248.855469 Z M 328.664062 248.855469 " fill-opacity="1" fill-rule="nonzero"/><path fill="#004aad" d="M 328.664062 261.199219 L 258.765625 261.199219 C 257.691406 261.199219 256.824219 260.324219 256.824219 259.25 C 256.824219 258.171875 257.691406 257.296875 258.765625 257.296875 L 328.664062 257.296875 C 329.734375 257.296875 330.605469 258.171875 330.605469 259.25 C 330.605469 260.324219 329.734375 261.199219 328.664062 261.199219 Z M 328.664062 261.199219 " fill-opacity="1" fill-rule="nonzero"/><g clip-path="url(#203a53c013)"><path fill="#004aad" d="M 341.414062 101.675781 L 246.011719 101.675781 L 246.011719 145.257812 L 237.097656 145.257812 L 237.097656 243.65625 L 246.015625 243.65625 L 246.015625 273.484375 L 341.414062 273.484375 L 341.414062 243.65625 L 350.328125 243.65625 L 350.328125 145.257812 L 341.414062 145.257812 Z M 249.894531 105.574219 L 337.53125 105.574219 L 337.53125 145.257812 L 249.894531 145.257812 Z M 337.53125 269.585938 L 249.898438 269.585938 L 249.898438 211.875 L 337.53125 211.875 Z M 337.53125 269.585938 " fill-opacity="1" fill-rule="nonzero"/></g><path fill="#004aad" d="M 258.765625 224.171875 L 328.664062 224.171875 C 329.734375 224.171875 330.605469 223.300781 330.605469 222.222656 C 330.605469 221.144531 329.734375 220.273438 328.664062 220.273438 L 258.765625 220.273438 C 257.691406 220.273438 256.824219 221.144531 256.824219 222.222656 C 256.824219 223.300781 257.691406 224.171875 258.765625 224.171875 Z M 258.765625 224.171875 " fill-opacity="1" fill-rule="nonzero"/><path fill="#004aad" d="M 258.765625 236.515625 L 328.664062 236.515625 C 329.734375 236.515625 330.605469 235.644531 330.605469 234.566406 C 330.605469 233.488281 329.734375 232.617188 328.664062 232.617188 L 258.765625 232.617188 C 257.691406 232.617188 256.824219 233.488281 256.824219 234.566406 C 256.824219 235.644531 257.691406 236.515625 258.765625 236.515625 Z M 258.765625 236.515625 " fill-opacity="1" fill-rule="nonzero"/><g clip-path="url(#ecdffe46d7)"><path fill="#004aad" d="M 213.144531 161.261719 L 213.144531 227.628906 C 213.144531 236.480469 220.308594 243.65625 229.105469 243.65625 L 231.273438 243.65625 L 231.273438 145.257812 L 229.105469 145.257812 C 220.308594 145.257812 213.144531 152.429688 213.144531 161.261719 Z M 213.144531 161.261719 " fill-opacity="1" fill-rule="nonzero"/></g><g clip-path="url(#c9d3bee65e)"><path fill="#004aad" d="M 358.324219 145.257812 L 356.152344 145.257812 L 356.152344 243.65625 L 358.324219 243.65625 C 367.117188 243.65625 374.28125 236.480469 374.28125 227.628906 L 374.28125 161.261719 C 374.28125 152.429688 367.117188 145.257812 358.324219 145.257812 Z M 358.324219 145.257812 " fill-opacity="1" fill-rule="nonzero"/></g><g fill="#004aad" fill-opacity="1"><g transform="translate(-3.355964, 221.469185)"><g><path d="M 73.730469 1.40625 L 81.945312 1.1875 L 84.105469 1.40625 L 86.054688 1.40625 L 88.105469 0.863281 L 88.648438 -1.40625 L 87.242188 -3.460938 L 81.40625 -10.160156 L 80.105469 -12.214844 L 78.703125 -13.730469 L 78.054688 -16.539062 L 78.054688 -19.242188 L 79.890625 -23.351562 L 80.433594 -25.621094 L 81.1875 -27.460938 L 82.054688 -34.160156 L 82.269531 -37.835938 L 82.054688 -40.863281 L 81.621094 -43.242188 L 81.621094 -45.082031 L 81.1875 -47.351562 L 79.242188 -53.621094 L 76.433594 -59.242188 L 72.539062 -64.539062 L 71.132812 -65.945312 L 67.78125 -68.863281 L 58.808594 -74.054688 L 50.484375 -76.433594 L 46.269531 -76.863281 L 43.132812 -76.648438 L 37.835938 -76.539062 L 35.566406 -76.105469 L 33.511719 -75.457031 L 31.460938 -75.242188 L 27.351562 -73.945312 L 18.054688 -68.757812 L 13.621094 -64.324219 L 8.433594 -57.296875 L 7.566406 -55.566406 L 7.027344 -53.296875 L 6.160156 -51.566406 L 4.863281 -47.242188 L 4.757812 -45.082031 L 4.214844 -42.917969 L 4 -34.484375 L 4.433594 -30.269531 L 6.054688 -23.785156 L 7.785156 -20.109375 L 8.433594 -18.054688 L 9.730469 -16.214844 L 10.703125 -14.160156 L 12 -12.863281 L 13.40625 -10.917969 L 18.269531 -6.59375 L 23.566406 -3.136719 L 25.730469 -2.488281 L 27.460938 -1.296875 L 31.460938 -0.433594 L 33.621094 0.214844 L 35.566406 0.648438 L 43.132812 1.1875 L 46.484375 1.082031 L 48.648438 1.1875 L 51.027344 0.539062 L 52.863281 -0.109375 L 59.457031 -1.945312 L 62.269531 -1.945312 L 66.917969 0.539062 L 69.621094 1.1875 L 71.566406 1.1875 Z M 42.917969 -17.730469 L 35.351562 -18.703125 L 33.296875 -19.785156 L 31.566406 -20.863281 L 28.214844 -24.214844 L 26.917969 -26.269531 L 25.082031 -29.945312 L 24.539062 -32 L 24 -37.621094 L 24.109375 -40.972656 L 25.082031 -45.40625 L 27.136719 -49.621094 L 28.324219 -51.457031 L 29.730469 -52.972656 L 33.511719 -55.457031 L 36.324219 -56.757812 L 39.675781 -57.945312 L 46.59375 -57.621094 L 49.511719 -56.757812 L 52.433594 -55.675781 L 54.378906 -54.269531 L 57.730469 -51.242188 L 59.132812 -49.1875 L 60.109375 -47.351562 L 61.621094 -43.351562 L 61.945312 -37.730469 L 61.730469 -34.160156 L 60.972656 -30.160156 L 60.109375 -27.890625 L 59.027344 -25.945312 L 57.621094 -24.109375 L 56.109375 -22.703125 L 52.539062 -19.890625 L 48.324219 -18.160156 Z M 42.917969 -17.730469 "/></g></g></g><g fill="#b28735" fill-opacity="1"><g transform="translate(121.821994, 221.469185)"><g><path d="M 18.269531 -21.621094 L 19.242188 -19.460938 L 21.621094 -18.59375 L 28.214844 -18.269531 L 30.59375 -18.378906 L 32.757812 -19.460938 L 34.054688 -21.621094 L 33.835938 -24 L 34.054688 -27.242188 L 35.027344 -30.378906 L 37.511719 -31.566406 L 41.730469 -31.460938 L 44 -31.675781 L 46.160156 -32.648438 L 47.242188 -34.808594 L 47.242188 -37.296875 L 47.027344 -39.351562 L 47.132812 -43.785156 L 46.054688 -46.160156 L 44 -47.460938 L 39.460938 -47.242188 L 37.40625 -47.351562 L 34.917969 -48.433594 L 34.054688 -50.484375 L 34.054688 -56.214844 L 32.972656 -59.457031 L 30.484375 -60.757812 L 26.160156 -60.757812 L 23.675781 -60.539062 L 21.621094 -60.648438 L 19.351562 -59.675781 L 18.378906 -57.1875 L 18.378906 -50.378906 L 17.1875 -48.324219 L 14.917969 -47.242188 L 10.378906 -47.242188 L 8.324219 -47.351562 L 6.160156 -46.269531 L 5.082031 -44 L 5.082031 -39.136719 L 4.863281 -36.972656 L 4.972656 -34.59375 L 6.269531 -32.433594 L 8.324219 -31.675781 L 10.378906 -31.351562 L 12.757812 -31.460938 L 15.027344 -31.890625 L 17.40625 -30.703125 L 18.484375 -28.539062 Z M 18.269531 -21.621094 "/></g></g></g></svg>