<svg xmlns="http://www.w3.org/2000/svg" xmlns:xlink="http://www.w3.org/1999/xlink" width="500" zoomAndPan="magnify" viewBox="0 0 375 374.999991" height="500" preserveAspectRatio="xMidYMid meet" version="1.0"><defs><g/><clipPath id="de36f65536"><path d="M 132 191.285156 L 253 191.285156 L 253 372.113281 L 132 372.113281 Z M 132 191.285156 " clip-rule="nonzero"/></clipPath><clipPath id="1050ec81b1"><path d="M 107.378906 237 L 127 237 L 127 341 L 107.378906 341 Z M 107.378906 237 " clip-rule="nonzero"/></clipPath><clipPath id="5986e4e291"><path d="M 258 237 L 277.414062 237 L 277.414062 341 L 258 341 Z M 258 237 " clip-rule="nonzero"/></clipPath></defs><path fill="#004aad" d="M 229.1875 346.191406 L 155.578125 346.191406 C 154.449219 346.191406 153.535156 345.273438 153.535156 344.140625 C 153.535156 343.007812 154.449219 342.089844 155.578125 342.089844 L 229.1875 342.089844 C 230.316406 342.089844 231.234375 343.007812 231.234375 344.140625 C 231.234375 345.273438 230.316406 346.191406 229.1875 346.191406 Z M 229.1875 346.191406 " fill-opacity="1" fill-rule="nonzero"/><path fill="#004aad" d="M 229.1875 359.183594 L 155.578125 359.183594 C 154.449219 359.183594 153.535156 358.265625 153.535156 357.128906 C 153.535156 355.996094 154.449219 355.078125 155.578125 355.078125 L 229.1875 355.078125 C 230.316406 355.078125 231.234375 355.996094 231.234375 357.128906 C 231.234375 358.265625 230.316406 359.183594 229.1875 359.183594 Z M 229.1875 359.183594 " fill-opacity="1" fill-rule="nonzero"/><g clip-path="url(#de36f65536)"><path fill="#004aad" d="M 242.617188 191.285156 L 142.148438 191.285156 L 142.148438 237.152344 L 132.761719 237.152344 L 132.761719 340.71875 L 142.148438 340.71875 L 142.148438 372.113281 L 242.617188 372.113281 L 242.617188 340.71875 L 252.003906 340.71875 L 252.003906 237.152344 L 242.617188 237.152344 Z M 146.238281 195.386719 L 238.527344 195.386719 L 238.527344 237.152344 L 146.238281 237.152344 Z M 238.527344 368.011719 L 146.238281 368.011719 L 146.238281 307.269531 L 238.527344 307.269531 Z M 238.527344 368.011719 " fill-opacity="1" fill-rule="nonzero"/></g><path fill="#004aad" d="M 155.578125 320.210938 L 229.1875 320.210938 C 230.316406 320.210938 231.234375 319.292969 231.234375 318.160156 C 231.234375 317.027344 230.316406 316.109375 229.1875 316.109375 L 155.578125 316.109375 C 154.449219 316.109375 153.535156 317.027344 153.535156 318.160156 C 153.535156 319.292969 154.449219 320.210938 155.578125 320.210938 Z M 155.578125 320.210938 " fill-opacity="1" fill-rule="nonzero"/><path fill="#004aad" d="M 155.578125 333.203125 L 229.1875 333.203125 C 230.316406 333.203125 231.234375 332.285156 231.234375 331.152344 C 231.234375 330.019531 230.316406 329.101562 229.1875 329.101562 L 155.578125 329.101562 C 154.449219 329.101562 153.535156 330.019531 153.535156 331.152344 C 153.535156 332.285156 154.449219 333.203125 155.578125 333.203125 Z M 155.578125 333.203125 " fill-opacity="1" fill-rule="nonzero"/><g clip-path="url(#1050ec81b1)"><path fill="#004aad" d="M 107.535156 254 L 107.535156 323.851562 C 107.535156 333.167969 115.078125 340.71875 124.339844 340.71875 L 126.628906 340.71875 L 126.628906 237.152344 L 124.339844 237.152344 C 115.078125 237.152344 107.535156 244.703125 107.535156 254 Z M 107.535156 254 " fill-opacity="1" fill-rule="nonzero"/></g><g clip-path="url(#5986e4e291)"><path fill="#004aad" d="M 260.425781 237.152344 L 258.136719 237.152344 L 258.136719 340.71875 L 260.425781 340.71875 C 269.6875 340.71875 277.230469 333.167969 277.230469 323.851562 L 277.230469 254 C 277.230469 244.703125 269.6875 237.152344 260.425781 237.152344 Z M 260.425781 237.152344 " fill-opacity="1" fill-rule="nonzero"/></g><g fill="#004aad" fill-opacity="1"><g transform="translate(147.08463, 85.268242)"><g><path d="M 77.308594 1.472656 L 85.925781 1.246094 L 88.191406 1.472656 L 90.230469 1.472656 L 92.386719 0.90625 L 92.953125 -1.472656 L 91.480469 -3.628906 L 85.359375 -10.65625 L 83.996094 -12.808594 L 82.523438 -14.394531 L 81.84375 -17.34375 L 81.84375 -20.175781 L 83.769531 -24.484375 L 84.335938 -26.867188 L 85.132812 -28.792969 L 86.039062 -35.820312 L 86.265625 -39.675781 L 86.039062 -42.847656 L 85.585938 -45.34375 L 85.585938 -47.269531 L 85.132812 -49.652344 L 83.089844 -56.226562 L 80.144531 -62.121094 L 76.0625 -67.675781 L 74.589844 -69.148438 L 71.074219 -72.207031 L 61.667969 -77.648438 L 52.9375 -80.144531 L 48.515625 -80.597656 L 45.230469 -80.371094 L 39.675781 -80.257812 L 37.292969 -79.804688 L 35.140625 -79.125 L 32.988281 -78.898438 L 28.679688 -77.535156 L 18.929688 -72.09375 L 14.28125 -67.449219 L 8.84375 -60.078125 L 7.933594 -58.265625 L 7.367188 -55.886719 L 6.460938 -54.070312 L 5.101562 -49.535156 L 4.988281 -47.269531 L 4.421875 -45.003906 L 4.195312 -36.160156 L 4.648438 -31.738281 L 6.347656 -24.9375 L 8.160156 -21.085938 L 8.84375 -18.929688 L 10.203125 -17.003906 L 11.222656 -14.851562 L 12.582031 -13.488281 L 14.054688 -11.449219 L 19.15625 -6.914062 L 24.710938 -3.289062 L 26.980469 -2.605469 L 28.792969 -1.359375 L 32.988281 -0.453125 L 35.253906 0.226562 L 37.292969 0.679688 L 45.230469 1.246094 L 48.742188 1.132812 L 51.011719 1.246094 L 53.503906 0.566406 L 55.429688 -0.113281 L 62.347656 -2.039062 L 65.292969 -2.039062 L 70.167969 0.566406 L 73.003906 1.246094 L 75.042969 1.246094 Z M 45.003906 -18.589844 L 37.066406 -19.609375 L 34.914062 -20.746094 L 33.101562 -21.878906 L 29.585938 -25.390625 L 28.226562 -27.546875 L 26.300781 -31.398438 L 25.730469 -33.554688 L 25.164062 -39.449219 L 25.277344 -42.960938 L 26.300781 -47.609375 L 28.453125 -52.03125 L 29.699219 -53.957031 L 31.171875 -55.546875 L 35.140625 -58.152344 L 38.089844 -59.511719 L 41.601562 -60.757812 L 48.855469 -60.417969 L 51.917969 -59.511719 L 54.976562 -58.378906 L 57.019531 -56.90625 L 60.53125 -53.730469 L 62.007812 -51.578125 L 63.027344 -49.652344 L 64.613281 -45.457031 L 64.953125 -39.5625 L 64.726562 -35.820312 L 63.933594 -31.625 L 63.027344 -29.246094 L 61.894531 -27.207031 L 60.417969 -25.277344 L 58.832031 -23.804688 L 55.089844 -20.859375 L 50.671875 -19.042969 Z M 45.003906 -18.589844 "/></g></g></g><g fill="#b28735" fill-opacity="1"><g transform="translate(165.302733, 177.033497)"><g><path d="M 19.15625 -22.671875 L 20.175781 -20.402344 L 22.671875 -19.496094 L 29.585938 -19.15625 L 32.078125 -19.269531 L 34.347656 -20.402344 L 35.707031 -22.671875 L 35.480469 -25.164062 L 35.707031 -28.566406 L 36.726562 -31.851562 L 39.335938 -33.101562 L 43.753906 -32.988281 L 46.136719 -33.214844 L 48.402344 -34.234375 L 49.535156 -36.5 L 49.535156 -39.109375 L 49.308594 -41.261719 L 49.421875 -45.910156 L 48.289062 -48.402344 L 46.136719 -49.765625 L 41.375 -49.535156 L 39.222656 -49.652344 L 36.613281 -50.785156 L 35.707031 -52.9375 L 35.707031 -58.945312 L 34.574219 -62.347656 L 31.964844 -63.707031 L 27.433594 -63.707031 L 24.824219 -63.480469 L 22.671875 -63.59375 L 20.289062 -62.574219 L 19.269531 -59.964844 L 19.269531 -52.824219 L 18.023438 -50.671875 L 15.644531 -49.535156 L 10.882812 -49.535156 L 8.726562 -49.652344 L 6.460938 -48.515625 L 5.328125 -46.136719 L 5.328125 -41.035156 L 5.101562 -38.769531 L 5.214844 -36.273438 L 6.574219 -34.007812 L 8.726562 -33.214844 L 10.882812 -32.875 L 13.375 -32.988281 L 15.757812 -33.441406 L 18.25 -32.195312 L 19.382812 -29.925781 Z M 19.15625 -22.671875 "/></g></g></g></svg>